<?xml version='1.0' encoding='utf-8'?>
<svg xmlns="http://www.w3.org/2000/svg" width="320mm" height="90mm" version="1.1" style="shape-rendering:geometricPrecision; text-rendering:geometricPrecision; image-rendering:optimizeQuality; fill-rule:evenodd; clip-rule:evenodd" viewBox="0 0 32000 9000"> <defs> <style type="text/css">  .fil0 {fill:#2b4686} .fil1 {fill:white}  </style> </defs> <g id="Warstwa_x0020_1"> <metadata id="CorelCorpID_0Corel-Layer"/> <path class="fil0" d="M23894 2669l-563 0 0 317c-26,-1 -52,-2 -78,-2 -595,0 -1078,341 -1078,762 0,18 1,36 3,53l-157 0 0 252 -413 0 0 -1905 -1234 0 0 2049c-71,-12 -145,-19 -221,-19 -266,0 -506,77 -679,202l0 -611 -1115 0 -35 -1784 -254 0 -49 1784 -491 0 -53 -2327 -302 0 -93 2974 -767 -310 -884 360 0 209 -390 0 0 -567 -969 0 0 -280 -524 -210 0 -454 -594 -395 -386 251 0 -682 -1058 0 0 1273 -962 0 0 1048 -296 0 0 -1319 -216 0c-50,-273 -368,-483 -753,-483 -9,0 -17,0 -26,0l0 -326 -1540 0 0 950 -1042 0 0 920 -390 -192 -1100 542 6 10 0 676 -345 -122 -311 108 0 -354 -317 -117 -42 -1766 -249 0 -54 1638 -199 -73 -425 118 0 -666 -2008 0 0 3271 4 0 0 559 30229 0 0 -1988 -272 0 0 -307 -540 0 0 -783 -667 -244 -624 244 0 379 -595 0 0 -943 -697 0 0 -581 237 3 -2036 -828 -229 113 0 -1204 -463 0 0 -657 -1235 0 0 657 -459 0 0 777z"/> <g id="_143006328"> <path class="fil1" d="M29884 5173l0 0c0,-26 -43,-47 -96,-47 -54,0 -97,21 -97,47l0 0 0 207 193 0 0 -207z"/> <path class="fil1" d="M29890 5536l0 0c0,-26 -44,-47 -97,-47 -53,0 -97,21 -97,47l0 0 0 206 194 0 0 -206z"/> <path class="fil1" d="M29884 5897l0 0c0,-26 -43,-47 -96,-47 -54,0 -97,21 -97,47l0 0 0 206 193 0 0 -206z"/> <path class="fil1" d="M30409 5800l0 0c0,-26 -43,-47 -96,-47 -53,0 -97,21 -97,47l0 0 0 207 193 0 0 -207z"/> <path class="fil1" d="M30409 6524l0 0c0,-26 -43,-47 -96,-47 -53,0 -97,21 -97,47l0 0 0 207 193 0 0 -207z"/> <rect class="fil1" x="26031" y="4211" width="180" height="195"/> <rect class="fil1" x="26029" y="4509" width="180" height="195"/> <rect class="fil1" x="26338" y="4211" width="180" height="195"/> <rect class="fil1" x="26336" y="4509" width="180" height="195"/> <rect class="fil1" x="26622" y="4211" width="180" height="195"/> <rect class="fil1" x="26620" y="4509" width="180" height="195"/> <rect class="fil1" x="24051" y="2039" width="180" height="195"/> <rect class="fil1" x="24049" y="2337" width="180" height="195"/> <rect class="fil1" x="24049" y="2613" width="180" height="195"/> <rect class="fil1" x="24046" y="2911" width="180" height="195"/> <rect class="fil1" x="24361" y="2608" width="180" height="195"/> <rect class="fil1" x="24359" y="2906" width="180" height="195"/> <rect class="fil1" x="24641" y="2039" width="180" height="195"/> <rect class="fil1" x="24639" y="2337" width="180" height="195"/> <rect class="fil1" x="25714" y="2036" width="180" height="195"/> <rect class="fil1" x="25712" y="2334" width="180" height="195"/> <rect class="fil1" x="25712" y="2610" width="180" height="195"/> <rect class="fil1" x="25710" y="2908" width="180" height="195"/> <rect class="fil1" x="24988" y="1351" width="180" height="195"/> <rect class="fil1" x="24985" y="1649" width="180" height="195"/> <rect class="fil1" x="25295" y="1351" width="180" height="195"/> <rect class="fil1" x="25292" y="1649" width="180" height="195"/> <rect class="fil1" x="20040" y="4999" width="180" height="195"/> <rect class="fil1" x="20352" y="4994" width="180" height="195"/> <rect class="fil1" x="20627" y="4987" width="180" height="195"/> <rect class="fil1" x="21218" y="4986" width="180" height="195"/> <rect class="fil1" x="20525" y="2305" width="123" height="133"/> <rect class="fil1" x="20524" y="2508" width="123" height="133"/> <rect class="fil1" x="20523" y="2696" width="123" height="133"/> <rect class="fil1" x="20522" y="2899" width="123" height="133"/> <rect class="fil1" x="20727" y="2508" width="123" height="133"/> <rect class="fil1" x="20725" y="2711" width="123" height="133"/> <rect class="fil1" x="20725" y="2899" width="123" height="133"/> <rect class="fil1" x="20724" y="3102" width="123" height="133"/> <rect class="fil1" x="17292" y="3958" width="180" height="195"/> <rect class="fil1" x="17290" y="4255" width="180" height="195"/> <rect class="fil1" x="17290" y="4531" width="180" height="195"/> <rect class="fil1" x="17288" y="4829" width="180" height="195"/> <rect class="fil1" x="17599" y="3958" width="180" height="195"/> <rect class="fil1" x="17597" y="4255" width="180" height="195"/> <rect class="fil1" x="17602" y="4526" width="180" height="195"/> <rect class="fil1" x="17600" y="4824" width="180" height="195"/> <rect class="fil1" x="17882" y="3957" width="180" height="195"/> <rect class="fil1" x="17880" y="4255" width="180" height="195"/> <path class="fil1" d="M13263 3177l0 0c0,-19 -32,-35 -72,-35 -40,0 -72,16 -72,35l0 0 0 155 144 0 0 -155z"/> <path class="fil1" d="M13267 3449l0 0c0,-20 -32,-36 -72,-36 -40,0 -73,16 -73,36l0 0 0 154 145 0 0 -154z"/> <path class="fil1" d="M13263 3719l0 0c0,-20 -32,-35 -72,-35 -40,0 -72,15 -72,35l0 0 0 155 144 0 0 -155z"/> <path class="fil1" d="M13021 3180l0 0c0,-19 -33,-35 -73,-35 -40,0 -72,16 -72,35l0 0 0 155 145 0 0 -155z"/> <path class="fil1" d="M13024 3451l0 0c0,-19 -32,-35 -72,-35 -40,0 -72,16 -72,35l0 0 0 155 144 0 0 -155z"/> <path class="fil1" d="M13021 3722l0 0c0,-20 -33,-36 -73,-36 -40,0 -72,16 -72,36l0 0 0 154 145 0 0 -154z"/> <rect class="fil1" x="11656" y="2452" width="180" height="195"/> <rect class="fil1" x="11653" y="2750" width="180" height="195"/> <rect class="fil1" x="11651" y="3324" width="180" height="195"/> <rect class="fil1" x="11963" y="2452" width="180" height="195"/> <rect class="fil1" x="11965" y="3021" width="180" height="195"/> <rect class="fil1" x="11963" y="3319" width="180" height="195"/> <rect class="fil1" x="12246" y="2452" width="180" height="195"/> <rect class="fil1" x="12244" y="2750" width="180" height="195"/> <rect class="fil1" x="11277" y="4083" width="180" height="195"/> <rect class="fil1" x="11868" y="4083" width="180" height="195"/> <path class="fil1" d="M6415 5416l0 0c0,-26 -43,-47 -96,-47 -54,0 -97,21 -97,47l0 0 0 206 193 0 0 -206z"/> <rect class="fil1" x="6864" y="3676" width="180" height="270"/> <rect class="fil1" x="6861" y="4088" width="180" height="270"/> <rect class="fil1" x="6861" y="4471" width="180" height="270"/> <rect class="fil1" x="6859" y="4884" width="180" height="270"/> <rect class="fil1" x="7171" y="3676" width="180" height="270"/> <rect class="fil1" x="7168" y="4088" width="180" height="270"/> <path class="fil1" d="M6410 5053l0 0c0,-26 -43,-47 -97,-47 -53,0 -96,21 -96,47l0 0 0 207 193 0 0 -207z"/> <path class="fil1" d="M6410 5777l0 0c0,-26 -43,-47 -97,-47 -53,0 -96,21 -96,47l0 0 0 206 193 0 0 -206z"/> <rect class="fil1" x="7961" y="2976" width="180" height="195"/> <rect class="fil1" x="7961" y="3252" width="180" height="195"/> <rect class="fil1" x="8270" y="2678" width="180" height="195"/> <rect class="fil1" x="8268" y="2976" width="180" height="195"/> <rect class="fil1" x="8273" y="3247" width="180" height="195"/> <rect class="fil1" x="8271" y="3545" width="180" height="195"/> <rect class="fil1" x="8553" y="2678" width="180" height="195"/> <rect class="fil1" x="8551" y="2976" width="180" height="195"/> <rect class="fil1" x="1444" y="4431" width="180" height="195"/> <rect class="fil1" x="1441" y="4729" width="180" height="195"/> <rect class="fil1" x="1441" y="5005" width="180" height="195"/> <rect class="fil1" x="1439" y="5303" width="180" height="195"/> <rect class="fil1" x="2603" y="5562" width="180" height="195"/> <rect class="fil1" x="2601" y="5859" width="180" height="195"/> <rect class="fil1" x="1753" y="5000" width="180" height="195"/> <rect class="fil1" x="1751" y="5297" width="180" height="195"/> <rect class="fil1" x="2032" y="4728" width="180" height="195"/> <rect class="fil1" x="2029" y="4993" width="180" height="195"/> <rect class="fil1" x="2026" y="5567" width="180" height="195"/> <rect class="fil1" x="2024" y="5864" width="180" height="195"/> <rect class="fil1" x="2336" y="4993" width="180" height="195"/> <rect class="fil1" x="2334" y="5290" width="180" height="195"/> <rect class="fil1" x="2339" y="5561" width="180" height="195"/> <rect class="fil1" x="2336" y="5859" width="180" height="195"/> <rect class="fil1" x="2619" y="4992" width="180" height="195"/> <rect class="fil1" x="2617" y="5290" width="180" height="195"/> <path class="fil1" d="M5763 5051l0 0c0,-25 -43,-47 -96,-47 -54,0 -97,22 -97,47l0 0 0 207 193 0 0 -207z"/> <path class="fil1" d="M5769 5414l0 0c0,-26 -44,-47 -97,-47 -53,0 -96,21 -96,47l0 0 0 207 193 0 0 -207z"/> <path class="fil1" d="M5763 5775l0 0c0,-26 -43,-47 -96,-47 -53,0 -97,21 -97,47l0 0 0 207 193 0 0 -207z"/> <path class="fil1" d="M4088 5401l0 0c0,-20 -34,-37 -76,-37 -42,0 -76,17 -76,37l0 0 0 163 152 0 0 -163z"/> <path class="fil1" d="M4092 5686l0 0c0,-20 -34,-37 -76,-37 -42,0 -76,17 -76,37l0 0 0 163 152 0 0 -163z"/> <path class="fil1" d="M4088 5970l0 0c0,-21 -34,-37 -76,-37 -42,0 -76,16 -76,37l0 0 0 162 152 0 0 -162z"/> <path class="fil1" d="M11387 5459l0 0c0,-26 -43,-47 -96,-47 -54,0 -97,21 -97,47l0 0 0 207 193 0 0 -207z"/> <path class="fil1" d="M11392 5822l0 0c0,-26 -43,-47 -96,-47 -54,0 -97,21 -97,47l0 0 0 207 193 0 0 -207z"/> <path class="fil1" d="M11387 6183l0 0c0,-26 -43,-47 -96,-47 -54,0 -97,21 -97,47l0 0 0 207 193 0 0 -207z"/> <path class="fil1" d="M9596 5965l0 0c0,-26 -43,-47 -97,-47 -53,0 -96,21 -96,47l0 0 0 207 193 0 0 -207z"/> <path class="fil1" d="M9601 6328l0 0c0,-26 -43,-47 -96,-47 -54,0 -97,21 -97,47l0 0 0 207 193 0 0 -207z"/> <path class="fil1" d="M9596 6689l0 0c0,-26 -43,-47 -97,-47 -53,0 -96,21 -96,47l0 0 0 207 193 0 0 -207z"/> <rect class="fil1" x="4774" y="6070" width="112" height="121"/> <rect class="fil1" x="4773" y="6255" width="112" height="121"/> <rect class="fil1" x="4773" y="6427" width="112" height="121"/> <rect class="fil1" x="4772" y="6612" width="112" height="121"/> <path class="fil1" d="M16586 4884l0 0c0,-25 -41,-45 -93,-45 -51,0 -93,20 -93,45l0 0 0 199 186 0 0 -199z"/> <path class="fil1" d="M16591 5233l0 0c0,-25 -41,-45 -92,-45 -52,0 -93,20 -93,45l0 0 0 199 185 0 0 -199z"/> <path class="fil1" d="M16586 5581l0 0c0,-25 -41,-46 -93,-46 -51,0 -93,21 -93,46l0 0 0 199 186 0 0 -199z"/> <path class="fil1" d="M16274 4888l0 0c0,-25 -41,-45 -93,-45 -51,0 -93,20 -93,45l0 0 0 199 186 0 0 -199z"/> <path class="fil1" d="M16280 5237l0 0c0,-25 -42,-45 -93,-45 -52,0 -93,20 -93,45l0 0 0 199 186 0 0 -199z"/> <path class="fil1" d="M16274 5584l0 0c0,-25 -41,-45 -93,-45 -51,0 -93,20 -93,45l0 0 0 199 186 0 0 -199z"/> <rect class="fil1" x="22631" y="3921" width="185" height="281"/> <rect class="fil1" x="22629" y="4350" width="185" height="281"/> <rect class="fil1" x="22947" y="3921" width="185" height="281"/> <rect class="fil1" x="22945" y="4350" width="185" height="281"/> <rect class="fil1" x="23239" y="3920" width="185" height="281"/> <rect class="fil1" x="23236" y="4350" width="185" height="281"/> </g> </g> </svg>