<?xml version="1.0" encoding="UTF-8" standalone="no"?>
<!-- Created with Inkscape (http://www.inkscape.org/) -->

<svg
   xmlns:dc="http://purl.org/dc/elements/1.1/"
   xmlns:cc="http://creativecommons.org/ns#"
   xmlns:rdf="http://www.w3.org/1999/02/22-rdf-syntax-ns#"
   xmlns:svg="http://www.w3.org/2000/svg"
   xmlns="http://www.w3.org/2000/svg"
   xmlns:sodipodi="http://sodipodi.sourceforge.net/DTD/sodipodi-0.dtd"
   xmlns:inkscape="http://www.inkscape.org/namespaces/inkscape"
   version="1.1"
   id="svg10"
   xml:space="preserve"
   width="821.47998"
   height="285.09332"
   viewBox="0 0 821.47998 285.09332"
   sodipodi:docname="logo_flup_VETORIAL.svg"
   inkscape:version="0.92.3 (2405546, 2018-03-11)"><metadata
     id="metadata16"><rdf:RDF><cc:Work
         rdf:about=""><dc:format>image/svg+xml</dc:format><dc:type
           rdf:resource="http://purl.org/dc/dcmitype/StillImage" /><dc:title></dc:title></cc:Work></rdf:RDF></metadata><defs
     id="defs14" /><sodipodi:namedview
     pagecolor="#ffffff"
     bordercolor="#666666"
     borderopacity="1"
     objecttolerance="10"
     gridtolerance="10"
     guidetolerance="10"
     inkscape:pageopacity="0"
     inkscape:pageshadow="2"
     inkscape:window-width="1920"
     inkscape:window-height="1017"
     id="namedview12"
     showgrid="false"
     inkscape:zoom="1.8491017"
     inkscape:cx="410.73999"
     inkscape:cy="30.48757"
     inkscape:window-x="-8"
     inkscape:window-y="-8"
     inkscape:window-maximized="1"
     inkscape:current-layer="g20" /><g
     id="g18"
     inkscape:groupmode="layer"
     inkscape:label="ink_ext_XXXXXX"
     transform="matrix(1.3333333,0,0,-1.3333333,0,285.09333)"><g
       id="g20"
       transform="scale(0.1)"><path
         d="m 1550.16,1942.32 h -110.54 v 17.89 h 318.24 c 90.08,0 161.72,-17.17 214.96,-51.5 53.22,-34.34 79.83,-89.95 79.83,-166.83 0,-73.16 -28.1,-127.83 -84.3,-164.04 -56.21,-36.19 -122.65,-54.29 -199.33,-54.29 -44.66,0 -79.65,6.31 -104.96,18.98 v -351.8 h 113.89 v -17.85 h -338.33 v 17.85 h 110.54 z m 113.9,-377.38 c 9.67,-5.99 22.14,-11.39 37.4,-16.25 15.27,-4.85 31.46,-7.28 48.59,-7.28 46.89,0 88.95,14.74 126.18,44.25 37.21,29.47 55.82,78.18 55.82,146.13 0,72.41 -16.55,125.62 -49.69,159.58 -33.12,33.97 -83.19,50.95 -150.19,50.95 h -68.11 v -377.38"
         style="fill:#211c1d;fill-opacity:1;fill-rule:nonzero;stroke:none"
         id="path22"
         inkscape:connector-curvature="0" /><path
         d="m 2505.99,1976.95 c 94.55,0 176.99,-40.16 247.35,-120.45 70.35,-80.29 105.51,-176.95 105.51,-289.96 0,-113.77 -34.79,-210.61 -104.39,-290.54 -69.61,-79.91 -152.43,-119.89 -248.47,-119.89 -94.54,0 -176.99,40.15 -247.33,120.44 -70.36,80.32 -105.53,176.98 -105.53,289.99 0,113.75 34.81,210.6 104.41,290.53 69.61,79.91 152.42,119.88 248.45,119.88 m 0,-802.97 c 60.3,0 107.21,21.01 140.71,63.01 33.5,42.01 56.01,91.83 67.55,149.46 11.55,57.59 17.3,117.63 17.3,180.09 0,64.68 -5.37,125.26 -16.19,181.77 -10.78,56.49 -32.93,105.75 -66.43,147.76 -33.5,42 -81.14,63 -142.94,63 -60.3,0 -107.19,-21 -140.69,-63 -33.5,-42.01 -56.03,-91.83 -67.56,-149.44 -11.54,-57.61 -17.31,-117.65 -17.31,-180.09 0,-64.67 5.39,-125.27 16.19,-181.77 10.8,-56.52 32.95,-105.77 66.45,-147.78 33.5,-42 81.14,-63.01 142.92,-63.01"
         style="fill:#211c1d;fill-opacity:1;fill-rule:nonzero;stroke:none"
         id="path24"
         inkscape:connector-curvature="0" /><path
         d="M 3049.97,1942.32 H 2938.3 v 17.89 h 342.81 c 79.65,0 144.25,-13.84 193.74,-41.45 49.51,-27.65 74.28,-79.9 74.28,-156.81 0,-60.49 -24.57,-104.18 -73.71,-131.06 -49.14,-26.87 -104.22,-44.05 -165.28,-51.51 70.73,-7.45 121.93,-23.27 153.55,-47.47 31.65,-24.2 51.57,-71.28 59.73,-141.27 l 15.65,-136.25 c 3.73,-28.3 10.97,-47.07 21.78,-56.39 10.8,-9.31 22.9,-13.96 36.27,-13.96 11.92,0 27.19,3.71 45.8,11.17 l 6.69,-14.53 c -11.92,-4.45 -25.11,-8 -39.61,-10.59 -14.52,-2.62 -31.85,-3.91 -51.96,-3.91 -61.78,0 -101.4,14.31 -118.89,42.99 -17.51,28.65 -31.11,81.33 -40.79,158.01 l -7.81,67.02 c -4.46,43.18 -16.92,76.32 -37.41,99.39 -20.46,23.09 -59.35,34.61 -116.68,34.61 h -72.59 v -377.47 h 113.89 v -17.85 H 2938.3 v 17.85 h 111.67 z m 113.9,-356.25 h 55.84 c 69.22,0 121.32,13.63 156.32,40.9 35.01,27.26 52.49,72.26 52.49,135 0,53.76 -13.4,97.26 -40.19,130.51 -26.81,33.23 -76.32,49.84 -148.52,49.84 h -75.94 v -356.25"
         style="fill:#211c1d;fill-opacity:1;fill-rule:nonzero;stroke:none"
         id="path26"
         inkscape:connector-curvature="0" /><path
         d="m 3972.59,1942.32 h -23.42 c -101.25,0 -167.14,-12.84 -197.66,-38.52 -30.51,-25.69 -45.78,-83.94 -45.78,-174.78 h -17.87 v 231.19 h 683.39 v -231.19 h -17.86 c 0,90.1 -15.26,148.16 -45.79,174.21 -30.53,26.08 -96.02,39.09 -196.54,39.09 h -24.54 v -751.59 h 115.01 v -17.85 h -343.94 v 17.85 h 115 v 751.59"
         style="fill:#211c1d;fill-opacity:1;fill-rule:nonzero;stroke:none"
         id="path28"
         inkscape:connector-curvature="0" /><path
         d="m 4805.89,1976.95 c 94.55,0 177.02,-40.16 247.37,-120.45 70.33,-80.29 105.51,-176.95 105.51,-289.96 0,-113.77 -34.8,-210.61 -104.4,-290.54 -69.6,-79.91 -152.44,-119.89 -248.48,-119.89 -94.54,0 -176.98,40.15 -247.32,120.44 -70.36,80.32 -105.53,176.98 -105.53,289.99 0,113.75 34.8,210.6 104.42,290.53 69.6,79.91 152.41,119.88 248.43,119.88 m 0,-802.97 c 60.34,0 107.23,21.01 140.72,63.01 33.5,42.01 56.02,91.83 67.56,149.46 11.55,57.59 17.31,117.63 17.31,180.09 0,64.68 -5.41,125.26 -16.19,181.77 -10.79,56.49 -32.95,105.75 -66.45,147.76 -33.5,42 -81.16,63 -142.95,63 -60.3,0 -107.18,-21 -140.67,-63 -33.52,-42.01 -56.04,-91.83 -67.58,-149.44 -11.53,-57.61 -17.29,-117.65 -17.29,-180.09 0,-64.67 5.38,-125.27 16.19,-181.77 10.79,-56.52 32.95,-105.77 66.43,-147.78 33.52,-42 81.15,-63.01 142.92,-63.01"
         style="fill:#211c1d;fill-opacity:1;fill-rule:nonzero;stroke:none"
         id="path30"
         inkscape:connector-curvature="0" /><path
         d="M 0,2138.18 H 1329.63 V 994.898 H 0 V 2138.18"
         style="fill:#211c1d;fill-opacity:1;fill-rule:nonzero;stroke:none"
         id="path32"
         inkscape:connector-curvature="0" /><path
         d="m 169.246,1961.29 h 351.738 v -20.11 h -90.449 v -490.66 c 0,-81.77 13.59,-144.2 40.766,-187.34 27.176,-43.11 79.027,-71.57 154.656,-64.64 59.77,5.44 93.941,19.31 131.91,57.96 37.961,38.66 56.942,94.41 56.942,167.28 v 423.72 c 0,33.45 -5.391,57.43 -16.192,71.95 -10.789,14.49 -19.308,21.73 -47.586,21.73 h -32.402 v 20.11 h 221.105 v -20.11 h -29.027 c -20.105,0 -34.801,-7.63 -44.109,-22.87 -9.309,-15.23 -13.961,-38.85 -13.961,-70.81 v -417.07 c 0,-84.77 -24.379,-151.3 -73.141,-199.63 -48.769,-48.32 -122.644,-72.49 -221.668,-72.49 -91.558,0 -164.687,24.73 -219.41,74.17 -54.723,49.43 -82.09,117.28 -82.09,203.52 v 505.18 h -87.082 v 20.11"
         style="fill:#ffffff;fill-opacity:1;fill-rule:nonzero;stroke:none"
         id="path34"
         inkscape:connector-curvature="0" /><path
         d="m 1060.75,1322.76 c 22.15,0 40.88,-7.67 56.18,-22.96 15.31,-15.31 22.96,-34.04 22.96,-56.19 0,-22.15 -7.65,-40.88 -22.96,-56.19 -15.3,-15.29 -34.03,-22.96 -56.18,-22.96 -22.15,0 -40.88,7.67 -56.18,22.96 -15.308,15.31 -22.968,34.04 -22.968,56.19 0,22.15 7.66,40.88 22.968,56.19 15.3,15.29 34.03,22.96 56.18,22.96"
         style="fill:#ffffff;fill-opacity:1;fill-rule:nonzero;stroke:none"
         id="path36"
         inkscape:connector-curvature="0" /><path
         d="m 1755.52,94.9492 c 0,-31.789 -9.82,-55.5508 -29.45,-71.3008 C 1706.95,7.89063 1683.57,0 1655.94,0 c -27.38,0 -51.02,8.01953 -70.91,24.0313 -19.62,15.75 -29.44,39.3984 -29.44,70.9179 V 263.109 h 31.76 v -158.48 c 0,-16.2696 0.91,-27.629 2.72,-34.1173 2.07,-7.2109 6.07,-13.9414 12.01,-20.1328 13.16,-14.7305 31,-22.0781 53.46,-22.0781 22.48,0 40.3,7.3476 53.48,22.0781 5.94,6.1914 9.94,12.9219 12.01,20.1328 1.81,6.4883 2.71,17.8477 2.71,34.1173 v 158.48 h 31.78 V 94.9492"
         style="fill:#211c1d;fill-opacity:1;fill-rule:nonzero;stroke:none"
         id="path38"
         inkscape:connector-curvature="0" /><path
         d="m 2042.74,5.05078 h -36.8 L 1876.91,204.602 c -0.5,1.027 -1.22,2.238 -2.12,3.679 -0.9,1.43 -1.87,3.16 -2.91,5.207 -1.8,3.114 -4.15,8.274 -6.97,15.524 V 7.37891 h -31.78 V 263.109 h 41.46 L 2001.28,68.1797 c 0.79,-1.2578 1.43,-2.3086 1.96,-3.0703 0.51,-0.7891 1.02,-1.75 1.54,-2.918 0.51,-1.1601 1.09,-2.6523 1.75,-4.4297 0.64,-1.8398 1.6,-4.2812 2.88,-7.3828 0.28,-0.5078 0.47,-1.0273 0.6,-1.5508 0.13,-0.5 0.44,-1.2773 0.97,-2.3164 V 263.109 h 31.76 V 5.05078"
         style="fill:#211c1d;fill-opacity:1;fill-rule:nonzero;stroke:none"
         id="path40"
         inkscape:connector-curvature="0" /><path
         d="m 2158.67,7.37891 h -31.78 V 263.109 h 31.78 V 7.37891"
         style="fill:#211c1d;fill-opacity:1;fill-rule:nonzero;stroke:none"
         id="path42"
         inkscape:connector-curvature="0" /><path
         d="M 2423.54,263.109 2324.35,0.78125 h -19.37 L 2204.24,263.109 h 34.09 l 75.56,-199.5699 c 1.3,-3.3477 2.19,-7.4883 2.71,-12.3789 0,3.8711 0.78,8.0117 2.33,12.3789 l 72.84,199.5699 h 31.77"
         style="fill:#211c1d;fill-opacity:1;fill-rule:nonzero;stroke:none"
         id="path44"
         inkscape:connector-curvature="0" /><path
         d="M 2616.83,7.37891 H 2469.6 V 263.109 h 143.74 V 236.34 h -111.97 v -85.231 h 92.61 v -26.73 h -92.61 V 34.1094 h 115.46 V 7.37891"
         style="fill:#211c1d;fill-opacity:1;fill-rule:nonzero;stroke:none"
         id="path46"
         inkscape:connector-curvature="0" /><path
         d="m 2850.91,7.37891 h -36.44 L 2743.96,117.031 h -34.08 V 7.37891 h -31.79 V 263.109 h 77.88 c 7.75,0 14.53,-0.32 20.34,-0.968 5.81,-0.653 11.06,-1.672 15.71,-3.102 4.64,-1.449 8.9,-3.359 12.78,-5.82 3.86,-2.449 7.74,-5.481 11.62,-9.098 13.44,-13.172 20.14,-29.859 20.14,-49.98 0,-21.18 -7.49,-38.891 -22.46,-53.082 -9.81,-9.571 -22.73,-16.028 -38.75,-19.379 z M 2802.47,193.738 c 0,16.024 -4.64,27.782 -13.94,35.274 -5.95,4.91 -18.35,7.328 -37.2,7.328 h -41.45 v -92.578 h 41.45 c 34.09,0 51.14,16.648 51.14,49.976"
         style="fill:#211c1d;fill-opacity:1;fill-rule:nonzero;stroke:none"
         id="path48"
         inkscape:connector-curvature="0" /><path
         d="m 3048.08,246.031 -14.73,-26.32 c -5.69,3.348 -10.73,6.141 -15.11,8.32 -4.39,2.219 -8.27,3.809 -11.62,4.84 -11.64,3.617 -23.38,5.438 -35.26,5.438 -14.73,0 -26.55,-3.297 -35.46,-9.899 -8.91,-6.57 -13.36,-15.301 -13.36,-26.14 0,-9.559 3.99,-17.829 12.01,-24.801 8,-6.981 25.05,-17.43 51.13,-31.391 18.09,-9.558 31.52,-18.207 40.31,-25.949 13.17,-11.367 19.75,-26.8595 19.75,-46.5079 0,-21.9414 -7.55,-39.332 -22.66,-52.1094 -15.11,-12.77342 -35.57,-19.19139 -61.41,-19.19139 -17.57,0 -33.32,2.83985 -47.27,8.55079 -8.01,3.0977 -18.99,9.4297 -32.93,18.9687 l 16.27,25.1915 c 5.93,-4.1407 11.43,-7.6211 16.47,-10.4532 5.03,-2.8593 9.35,-4.9375 12.97,-6.2187 11.63,-4.3906 23.9,-6.5781 36.82,-6.5781 15.48,0 27.43,3.3476 35.84,10.0781 8.39,6.7109 12.59,16.2695 12.59,28.6523 0,7.7578 -1.3,13.8399 -3.88,18.2266 -4.65,8.5312 -11.88,15.4997 -21.69,20.9097 -3.11,1.813 -8.2,4.59 -15.31,8.321 -7.11,3.761 -16.2,8.601 -27.31,14.551 -36.44,19.621 -54.64,41.968 -54.64,67.031 0,20.398 7.75,36.801 23.25,49.219 15.5,12.402 35.9,18.589 61.21,18.589 16.29,0 30.61,-2.05 43.02,-6.187 8.53,-2.832 18.85,-7.891 31,-15.141"
         style="fill:#211c1d;fill-opacity:1;fill-rule:nonzero;stroke:none"
         id="path50"
         inkscape:connector-curvature="0" /><path
         d="m 3142.92,7.37891 h -31.78 V 263.109 h 31.78 V 7.37891"
         style="fill:#211c1d;fill-opacity:1;fill-rule:nonzero;stroke:none"
         id="path52"
         inkscape:connector-curvature="0" /><path
         d="m 3441.5,136.41 c 0,-34.629 -11.5,-65.2498 -34.49,-91.8397 -11.62,-13.4297 -24.73,-22.9609 -39.32,-28.6797 -14.6,-5.6797 -33.01,-8.51169 -55.22,-8.51169 h -84.84 V 263.109 h 85.24 c 37.19,0 67.92,-11.879 92.22,-35.66 24.27,-23.5 36.41,-53.847 36.41,-91.039 m -33.33,0.371 c 0,28.18 -9.57,51.789 -28.67,70.93 -19.11,19.078 -43,28.641 -71.68,28.641 h -48.44 V 34.1211 h 48.44 c 31.27,0 54.24,7.7383 68.97,23.2305 4.65,4.9179 8.92,10.5273 12.79,16.8398 3.86,6.3477 7.16,13 9.89,19.9805 2.7,6.9691 4.84,14.0781 6.37,21.3081 1.55,7.219 2.33,14.329 2.33,21.301"
         style="fill:#211c1d;fill-opacity:1;fill-rule:nonzero;stroke:none"
         id="path54"
         inkscape:connector-curvature="0" /><path
         d="m 3688.02,7.37891 h -34.11 L 3627.56,82.9219 H 3524.12 L 3497.77,7.37891 h -34.11 l 95.33,263.09009 h 34.08 z M 3617.48,111.98 3576.04,229.012 3534.18,111.98 Z"
         style="fill:#211c1d;fill-opacity:1;fill-rule:nonzero;stroke:none"
         id="path56"
         inkscape:connector-curvature="0" /><path
         d="m 3947.1,136.41 c 0,-34.629 -11.48,-65.2498 -34.48,-91.8397 -11.62,-13.4297 -24.7,-22.9609 -39.3,-28.6797 -14.59,-5.6797 -33,-8.51169 -55.21,-8.51169 h -84.87 V 263.109 h 85.24 c 37.19,0 67.93,-11.879 92.22,-35.66 24.28,-23.5 36.4,-53.847 36.4,-91.039 m -33.29,0.371 c 0,28.18 -9.57,51.789 -28.68,70.93 -19.1,19.078 -43,28.641 -71.67,28.641 h -48.45 V 34.1211 h 48.45 c 31.24,0 54.24,7.7383 68.95,23.2305 4.64,4.9179 8.91,10.5273 12.81,16.8398 3.86,6.3477 7.16,13 9.86,19.9805 2.73,6.9691 4.84,14.0781 6.41,21.3081 1.54,7.219 2.32,14.329 2.32,21.301"
         style="fill:#211c1d;fill-opacity:1;fill-rule:nonzero;stroke:none"
         id="path58"
         inkscape:connector-curvature="0" /><path
         d="M 4155.66,7.37891 H 4008.44 V 263.109 h 143.73 V 236.34 H 4040.2 v -85.231 h 92.62 v -26.73 H 4040.2 V 34.1094 h 115.46 V 7.37891"
         style="fill:#211c1d;fill-opacity:1;fill-rule:nonzero;stroke:none"
         id="path60"
         inkscape:connector-curvature="0" /><path
         d="m 4527.89,136.41 c 0,-34.629 -11.52,-65.2498 -34.5,-91.8397 -11.61,-13.4297 -24.72,-22.9609 -39.31,-28.6797 -14.6,-5.6797 -33.01,-8.51169 -55.22,-8.51169 h -84.87 V 263.109 h 85.24 c 37.2,0 67.94,-11.879 92.22,-35.66 24.28,-23.5 36.44,-53.847 36.44,-91.039 m -33.33,0.371 c 0,28.18 -9.57,51.789 -28.68,70.93 -19.1,19.078 -42.99,28.641 -71.68,28.641 h -48.42 V 34.1211 h 48.42 c 31.24,0 54.25,7.7383 68.98,23.2305 4.65,4.9179 8.9,10.5273 12.79,16.8398 3.86,6.3477 7.16,13 9.86,19.9805 2.71,6.9691 4.84,14.0781 6.41,21.3081 1.53,7.219 2.32,14.329 2.32,21.301"
         style="fill:#211c1d;fill-opacity:1;fill-rule:nonzero;stroke:none"
         id="path62"
         inkscape:connector-curvature="0" /><path
         d="m 4823.2,135.25 c 0,-38.5312 -12.14,-70.2695 -36.42,-95.3281 -24.01,-25.0625 -54.62,-37.60159 -91.8,-37.60159 -37.22,0 -67.95,12.53909 -92.22,37.60159 -24.31,25.0586 -36.44,56.7969 -36.44,95.3281 0,38.211 12.13,69.859 36.44,94.922 24.27,25.047 55,37.59 92.22,37.59 37.18,0 67.79,-12.543 91.8,-37.59 24.28,-24.543 36.42,-56.192 36.42,-94.922 m -34.87,0 c 0,28.398 -9.16,52.941 -27.51,73.59 -18.33,20.68 -40.28,31 -65.84,31 -25.84,0 -47.92,-10.32 -66.27,-31 -18.33,-20.649 -27.52,-45.192 -27.52,-73.59 0,-28.961 9.19,-53.7617 27.52,-74.4102 18.07,-20.3984 40.15,-30.6015 66.27,-30.6015 25.81,0 47.78,10.2031 65.84,30.6015 18.35,20.6485 27.51,45.4492 27.51,74.4102"
         style="fill:#211c1d;fill-opacity:1;fill-rule:nonzero;stroke:none"
         id="path64"
         inkscape:connector-curvature="0" /><path
         d="m 5144.05,187.551 c 0,-13.199 -2.14,-25.141 -6.41,-35.84 -4.28,-10.742 -10.33,-19.84 -18.22,-27.332 -7.87,-7.488 -17.44,-13.238 -28.64,-17.238 -11.24,-4 -23.85,-6 -37.8,-6 -3.35,0 -8.32,0.238 -14.92,0.769 -6.59,0.531 -14.77,1.309 -24.59,2.328 V 7.37891 h -31.79 V 263.109 h 80.22 c 28.42,0 49.19,-6.73 62.38,-20.148 13.18,-13.441 19.77,-31.902 19.77,-55.41 m -32.96,-1.949 c 0,17.046 -4.75,30.347 -14.32,39.918 -7.23,7.218 -20.41,10.832 -39.52,10.832 h -43.78 V 130.969 c 14.19,-1.539 25.58,-2.321 34.08,-2.321 14.47,0 25.57,1.68 33.33,5.032 9.3,3.871 16.65,10.41 22.08,19.57 5.43,9.16 8.13,19.969 8.13,32.352"
         style="fill:#211c1d;fill-opacity:1;fill-rule:nonzero;stroke:none"
         id="path66"
         inkscape:connector-curvature="0" /><path
         d="m 5430.97,135.25 c 0,-38.5312 -12.13,-70.2695 -36.42,-95.3281 -24.04,-25.0625 -54.64,-37.60159 -91.83,-37.60159 -37.21,0 -67.94,12.53909 -92.22,37.60159 -24.28,25.0586 -36.43,56.7969 -36.43,95.3281 0,38.211 12.15,69.859 36.43,94.922 24.28,25.047 55.01,37.59 92.22,37.59 37.19,0 67.79,-12.543 91.83,-37.59 24.29,-24.543 36.42,-56.192 36.42,-94.922 m -34.89,0 c 0,28.398 -9.17,52.941 -27.49,73.59 -18.35,20.68 -40.29,31 -65.87,31 -25.83,0 -47.92,-10.32 -66.27,-31 -18.32,-20.649 -27.49,-45.192 -27.49,-73.59 0,-28.961 9.17,-53.7617 27.49,-74.4102 18.09,-20.3984 40.17,-30.6015 66.27,-30.6015 25.82,0 47.79,10.2031 65.87,30.6015 18.32,20.6485 27.49,45.4492 27.49,74.4102"
         style="fill:#211c1d;fill-opacity:1;fill-rule:nonzero;stroke:none"
         id="path68"
         inkscape:connector-curvature="0" /><path
         d="m 5665.17,7.37891 h -36.41 L 5558.25,117.031 h -34.1 V 7.37891 h -31.77 V 263.109 h 77.87 c 7.75,0 14.54,-0.32 20.35,-0.968 5.81,-0.653 11.05,-1.672 15.7,-3.102 4.65,-1.449 8.89,-3.359 12.79,-5.82 3.86,-2.449 7.73,-5.481 11.62,-9.098 13.44,-13.172 20.13,-29.859 20.13,-49.98 0,-21.18 -7.48,-38.891 -22.48,-53.082 -9.81,-9.571 -22.71,-16.028 -38.73,-19.379 z M 5616.76,193.738 c 0,16.024 -4.65,27.782 -13.94,35.274 -5.95,4.91 -18.36,7.328 -37.22,7.328 h -41.45 v -92.578 h 41.45 c 34.11,0 51.16,16.648 51.16,49.976"
         style="fill:#211c1d;fill-opacity:1;fill-rule:nonzero;stroke:none"
         id="path70"
         inkscape:connector-curvature="0" /><path
         d="m 5881.72,236.352 h -85.25 V 7.37891 h -31.75 V 236.352 h -85.25 v 26.757 h 202.25 v -26.757"
         style="fill:#211c1d;fill-opacity:1;fill-rule:nonzero;stroke:none"
         id="path72"
         inkscape:connector-curvature="0" /><path
         d="m 6161.14,135.25 c 0,-38.5312 -12.17,-70.2695 -36.44,-95.3281 -24.03,-25.0625 -54.63,-37.60159 -91.81,-37.60159 -37.22,0 -67.95,12.53909 -92.23,37.60159 -24.3,25.0586 -36.43,56.7969 -36.43,95.3281 0,38.211 12.13,69.859 36.43,94.922 24.28,25.047 55.01,37.59 92.23,37.59 37.18,0 67.78,-12.543 91.81,-37.59 24.27,-24.543 36.44,-56.192 36.44,-94.922 m -34.88,0 c 0,28.398 -9.18,52.941 -27.51,73.59 -18.34,20.68 -40.3,31 -65.86,31 -25.84,0 -47.92,-10.32 -66.27,-31 -18.32,-20.649 -27.49,-45.192 -27.49,-73.59 0,-28.961 9.17,-53.7617 27.49,-74.4102 18.07,-20.3984 40.15,-30.6015 66.27,-30.6015 25.81,0 47.78,10.2031 65.86,30.6015 18.33,20.6485 27.51,45.4492 27.51,74.4102"
         style="fill:#211c1d;fill-opacity:1;fill-rule:nonzero;stroke:none"
         id="path74"
         inkscape:connector-curvature="0" /><path
         d="M 1718.58,703.512 H 1564.03 V 454.121 h 47.61 v 104.68 h 87.67 v 40.039 h -87.67 v 64.238 h 106.94 z m 142.45,0 h -42.7 l -90.31,-249.391 h 49.88 l 20.41,61.59 h 83.5 l 19.65,-61.59 h 49.88 z m -49.88,-147.371 28.72,90.308 29.1,-90.308 z m 282.64,151.898 c -39.05,0 -70.41,-11.59 -94.09,-34.758 -25.44,-24.941 -38.16,-56.051 -38.16,-93.332 0,-41.32 13.98,-74.57 41.94,-99.758 22.92,-20.66 53.03,-30.972 90.31,-30.972 7.31,0 14.23,0.359 20.78,1.121 6.55,0.762 12.98,1.762 19.28,3.031 8.81,1.75 20.02,5.777 33.63,12.09 l -8.7,40.051 c -19.64,-7.813 -37.91,-11.711 -54.79,-11.711 -27.46,0 -49.25,8.051 -65.37,24.179 -16.37,16.372 -24.56,37.911 -24.56,64.61 0,23.68 7.68,43.082 23.05,58.191 15.36,15.367 35.14,23.047 59.33,23.047 22.16,0 41.31,-5.789 57.43,-17.379 l 18.14,37.789 c -21.16,15.871 -47.23,23.801 -78.22,23.801 m 323.83,-4.527 h -47.61 V 548.961 c 0,-37.031 -18.51,-55.539 -55.55,-55.539 -39.29,0 -58.94,18.508 -58.94,55.539 v 154.551 h -47.24 V 551.609 c 0,-23.179 2.4,-40.808 7.18,-52.898 5.04,-12.102 13.98,-22.551 26.83,-31.371 17.63,-12.09 41.19,-18.121 70.66,-18.121 29.48,0 52.9,6.031 70.29,18.121 12.84,8.82 21.78,19.398 26.82,31.738 5.04,12.344 7.56,29.863 7.56,52.531 z m 211.23,-208.961 h -102.03 v 208.961 h -47.61 V 454.121 h 149.64 z m 228.61,172.679 c -22.68,24.192 -56.31,36.282 -100.89,36.282 h -92.58 V 454.121 h 92.2 c 44.33,0 77.96,12.207 100.89,36.649 22.92,24.429 34.38,54.039 34.38,88.8 0,34.258 -11.33,63.481 -34,87.66 m -40.44,-149.628 c -15.36,-14.364 -37.16,-21.543 -65.37,-21.543 h -37.78 V 661.57 h 37.78 c 26.45,0 46.35,-4.922 59.71,-14.742 19.14,-14.359 28.71,-36.906 28.71,-67.637 0,-26.703 -7.68,-47.23 -23.05,-61.589 m 217.65,185.91 h -42.69 l -90.31,-249.391 h 49.87 l 20.41,61.59 h 83.51 l 19.65,-61.59 h 49.87 z m -49.87,-147.371 28.71,90.308 29.1,-90.308 z m 366.14,111.089 c -22.67,24.192 -56.3,36.282 -100.89,36.282 h -92.57 V 454.121 h 92.2 c 44.33,0 77.96,12.207 100.89,36.649 22.92,24.429 34.38,54.039 34.38,88.8 0,34.258 -11.33,63.481 -34.01,87.66 m -40.43,-149.628 c -15.37,-14.364 -37.17,-21.543 -65.37,-21.543 h -37.79 V 661.57 h 37.79 c 26.45,0 46.35,-4.922 59.7,-14.742 19.15,-14.359 28.72,-36.906 28.72,-67.637 0,-26.703 -7.7,-47.23 -23.05,-61.589 m 274.71,-23.051 h -109.2 v 66.5 h 85.39 v 40.437 h -85.39 v 61.59 h 104.29 v 40.434 h -151.9 V 454.121 h 156.81 z m 332.52,172.679 c -22.67,24.192 -56.3,36.282 -100.89,36.282 h -92.58 V 454.121 h 92.2 c 44.33,0 77.96,12.207 100.89,36.649 22.92,24.429 34.39,54.039 34.39,88.8 0,34.258 -11.34,63.481 -34.01,87.66 m -40.43,-149.628 c -15.37,-14.364 -37.17,-21.543 -65.37,-21.543 h -37.79 V 661.57 h 37.79 c 26.45,0 46.34,-4.922 59.7,-14.742 19.14,-14.359 28.72,-36.906 28.72,-67.637 0,-26.703 -7.69,-47.23 -23.05,-61.589 m 274.7,-23.051 h -109.2 v 66.5 h 85.4 v 40.437 h -85.4 v 61.59 h 104.28 v 40.434 H 3995.2 V 454.121 h 156.81 z m 290.96,0 h -102.03 v 208.961 h -47.61 V 454.121 h 149.64 z m 194.22,0 h -109.21 v 66.5 h 85.4 v 40.437 h -85.4 v 61.59 h 104.3 v 40.434 H 4480.37 V 454.121 h 156.82 z m 213.11,208.961 h -197.25 v -40.434 h 74.82 V 454.121 h 47.61 v 208.957 h 74.82 z m 156.05,-142.461 c 18.14,5.039 31.11,12.719 38.92,23.051 9.07,11.589 13.61,27.207 13.61,46.859 0,23.43 -6.81,41.437 -20.41,54.027 -3.78,3.532 -7.74,6.492 -11.9,8.883 -4.16,2.399 -8.82,4.289 -13.98,5.668 -5.17,1.383 -11.15,2.391 -17.96,3.031 -6.79,0.621 -14.73,0.942 -23.8,0.942 H 4887.7 V 454.121 h 47.61 v 99.75 h 23.81 l 57.06,-99.75 h 52.14 z m -40.06,33.258 h -30.98 v 68.769 h 30.98 c 15.88,0 27.09,-2.519 33.64,-7.558 6.55,-5.04 9.82,-13.598 9.82,-25.692 0,-23.687 -14.48,-35.519 -43.46,-35.519 m 241.84,109.203 h -42.71 l -90.3,-249.391 H 5125 l 20.41,61.59 h 83.51 l 19.65,-61.59 h 49.87 z m -49.87,-147.371 28.71,90.308 29.1,-90.308 z m 312.49,139.25 c -5.8,2.39 -11.22,4.339 -16.25,5.847 -14.36,4.282 -29.98,6.434 -46.86,6.434 -25.69,0 -46.61,-5.543 -62.72,-16.633 -4.04,-2.769 -7.63,-5.668 -10.77,-8.687 -3.16,-3.024 -5.74,-6.301 -7.75,-9.832 -6.55,-10.329 -9.82,-21.911 -9.82,-34.758 0,-13.602 4.15,-25.453 12.47,-35.524 8.56,-10.078 23.67,-21.289 45.34,-33.629 l 38.53,-21.898 c 14.62,-8.32 21.93,-17.27 21.93,-26.84 0,-7.562 -3.21,-13.609 -9.64,-18.141 -6.42,-4.539 -15.3,-6.8 -26.64,-6.8 -11.33,0 -23.3,2.39 -35.89,7.191 -3.53,1.25 -8.32,3.391 -14.36,6.41 -6.05,3.02 -13.1,6.668 -21.16,10.957 l -20.03,-43.828 c 4.03,-1.769 7.37,-3.281 10,-4.539 2.66,-1.262 4.74,-2.269 6.25,-3.019 20.65,-9.582 38.03,-15.364 52.14,-17.383 3.53,-0.5 7.18,-0.879 10.96,-1.141 3.78,-0.238 7.56,-0.359 11.34,-0.359 27.96,0 49.56,6.222 64.8,18.691 15.24,12.469 22.86,29.789 22.86,51.961 0,18.379 -5.8,33.25 -17.38,44.59 -10.83,11.328 -35.65,27.328 -74.44,47.98 -15.87,8.571 -23.8,17.387 -23.8,26.45 0,7.05 3.27,12.66 9.82,16.82 6.55,4.16 15.49,6.23 26.83,6.23 15.87,0 37.41,-5.921 64.61,-17.75 l 18.89,42.688 c -7.06,3.269 -13.47,6.109 -19.26,8.512"
         style="fill:#211c1d;fill-opacity:1;fill-rule:nonzero;stroke:none"
         id="path76"
         inkscape:connector-curvature="0" /><path
         d="M 252.961,706.68 H 4.98047 V 306.5 H 81.3672 V 474.449 H 222.035 V 538.73 H 81.3672 V 641.789 H 252.961 Z M 561.566,371.379 H 397.855 V 706.68 H 321.469 V 306.5 H 561.566 Z M 947.18,706.68 H 870.777 V 458.699 c 0,-59.429 -29.707,-89.129 -89.129,-89.129 -63.05,0 -94.578,29.7 -94.578,89.129 V 706.68 H 611.277 V 462.941 c 0,-37.191 3.84,-65.48 11.52,-84.89 8.082,-19.391 22.433,-36.18 43.055,-50.332 28.285,-19.391 66.086,-29.098 113.378,-29.098 47.29,0 84.875,9.707 112.766,29.098 20.621,14.152 34.961,31.133 43.055,50.953 8.078,19.777 12.129,47.879 12.129,84.269 z m 342.26,-33.051 c -22.44,22.019 -57.9,33.051 -106.41,33.051 H 1046 V 306.5 h 76.4 v 137.031 c 13.34,-1.211 25.66,-1.812 36.98,-1.812 51.33,0 90.74,11.511 118.24,34.562 30.31,25.86 45.47,61.84 45.47,107.93 0,37.578 -11.22,67.391 -33.65,89.418 M 1158.78,507.191 h -2.43 c -0.81,0 -2.22,0.2 -4.24,0.61 h -10.31 -9.7 l -9.7,0.609 v 133.379 h 53.35 c 45.68,0 68.52,-21.219 68.52,-63.66 0,-47.277 -28.5,-70.938 -85.49,-70.938"
         style="fill:#2b3896;fill-opacity:1;fill-rule:nonzero;stroke:none"
         id="path78"
         inkscape:connector-curvature="0" /></g></g></svg>