<svg id="Layer_1" data-name="Layer 1" xmlns="http://www.w3.org/2000/svg" xmlns:xlink="http://www.w3.org/1999/xlink" viewBox="0 0 855.35 991.51"><defs><style>.cls-1{stroke:#000;stroke-miterlimit:10;}.cls-2{fill:none;}.cls-3{fill:url(#linear-gradient);}.cls-4{fill:#f5ff1f;}</style><linearGradient id="linear-gradient" x1="531.59" y1="751.87" x2="746.22" y2="162.2" gradientTransform="matrix(1, 0, 0, -1, 0, 1280)" gradientUnits="userSpaceOnUse"><stop offset="0" stop-color="#e6354e"/><stop offset="0.07" stop-color="#eb4650"/><stop offset="0.14" stop-color="#f2683a"/><stop offset="0.21" stop-color="#f78d3f"/><stop offset="0.29" stop-color="#faa842"/><stop offset="0.36" stop-color="#c7367a"/><stop offset="0.43" stop-color="#974180"/><stop offset="0.5" stop-color="#502a64"/><stop offset="0.57" stop-color="#362b69"/><stop offset="0.64" stop-color="#0db0d1"/><stop offset="0.71" stop-color="#3b94cc"/><stop offset="0.79" stop-color="#3167a4"/><stop offset="0.86" stop-color="#2b4686"/><stop offset="0.93" stop-color="#069f9e"/><stop offset="1" stop-color="#5aad6e"/></linearGradient></defs><title>LogotipoCorrigidoSemStroke</title><path class="cls-1" d="M257.22,501.85c.32,0,33-28.69,72.61-63.86S452.61,329.31,514.45,274.53,630,172.17,633.74,169l3.57-3.16a4.68,4.68,0,0,1,6.16,0l188,166.62c105.19,93.12,191.58,169.3,192,169.3s11.76-13.15,23.76-26.77c15.88-18.07,20.49-23.07,19.92-23.88-.41-.57-96-85.42-212.42-188.59C667.94,97.21,642.66,75.08,640.39,75c-2.43-.08-11.84,8.1-98,84.37-52.36,46.35-147.91,131-212.34,188S213,451.28,212.81,451.61" transform="translate(-212.36 -74.5)"/><path class="cls-1" d="M339.88,208.64V289l2.67-2.43c2.52-2.43,103.74-93.68,104.06-93.84,0-.09.41-14.59.73-32.34l.57-32.17h-108v80.39Z" transform="translate(-212.36 -74.5)"/><rect class="cls-1" x="45.67" y="427.35" width="763.91" height="59.24" rx="29.62" ry="29.62"/><path class="cls-2" d="M486.1,753.1" transform="translate(-212.36 -74.5)"/><path class="cls-3" d="M876.28,581.11h-71.6c-36.8,0-66.6,28.4-66.6,63.5v116.1H542V638.51c0-31.7-27-57.5-60.3-57.5h-84.2c-33.3,0-60.3,25.7-60.3,57.5v370c0,31.7,27,57.5,60.3,57.5h84.2c33.3,0,60.3-25.7,60.3-57.5V886.41H738v116.1c0,35.1,29.8,63.5,66.6,63.5h71.6c36.8,0,66.6-28.4,66.6-63.5v-358C942.88,609.41,913.08,581.11,876.28,581.11Z" transform="translate(-212.36 -74.5)"/><path class="cls-4" d="M836.1,854" transform="translate(-212.36 -74.5)"/><path class="cls-4" d="M783.1,794" transform="translate(-212.36 -74.5)"/><path class="cls-4" d="M836.1,884" transform="translate(-212.36 -74.5)"/><path class="cls-4" d="M756.6,794" transform="translate(-212.36 -74.5)"/></svg>